ISO-10303-21;
HEADER;
FILE_DESCRIPTION(('FreeCAD Model'),'2;1');
FILE_NAME('Open CASCADE Shape Model','2026-01-27T18:33:52',(''),(''),
  'Open CASCADE STEP processor 7.8','FreeCAD','Unknown');
FILE_SCHEMA(('AUTOMOTIVE_DESIGN { 1 0 10303 214 1 1 1 1 }'));
ENDSEC;
DATA;
#1 = APPLICATION_PROTOCOL_DEFINITION('international standard',
  'automotive_design',2000,#2);
#2 = APPLICATION_CONTEXT(
  'core data for automotive mechanical design processes');
#3 = SHAPE_DEFINITION_REPRESENTATION(#4,#10);
#4 = PRODUCT_DEFINITION_SHAPE('','',#5);
#5 = PRODUCT_DEFINITION('design','',#6,#9);
#6 = PRODUCT_DEFINITION_FORMATION('','',#7);
#7 = PRODUCT('Chamfer','Chamfer','',(#8));
#8 = PRODUCT_CONTEXT('',#2,'mechanical');
#9 = PRODUCT_DEFINITION_CONTEXT('part definition',#2,'design');
#10 = ADVANCED_BREP_SHAPE_REPRESENTATION('',(#11,#15),#641);
#11 = AXIS2_PLACEMENT_3D('',#12,#13,#14);
#12 = CARTESIAN_POINT('',(0.,0.,0.));
#13 = DIRECTION('',(0.,0.,1.));
#14 = DIRECTION('',(1.,0.,-0.));
#15 = MANIFOLD_SOLID_BREP('',#16);
#16 = CLOSED_SHELL('',(#17,#57,#88,#119,#211,#235,#252,#276,#300,#317,
    #348,#372,#396,#413,#444,#468,#492,#509,#521,#533,#564,#588,#612,
    #629));
#17 = ADVANCED_FACE('',(#18),#52,.F.);
#18 = FACE_BOUND('',#19,.F.);
#19 = EDGE_LOOP('',(#20,#30,#38,#46));
#20 = ORIENTED_EDGE('',*,*,#21,.T.);
#21 = EDGE_CURVE('',#22,#24,#26,.T.);
#22 = VERTEX_POINT('',#23);
#23 = CARTESIAN_POINT('',(-2.324999809265,9.536743167264E-07,
    1.424999237061));
#24 = VERTEX_POINT('',#25);
#25 = CARTESIAN_POINT('',(-2.324999809265,-2.999999046326,1.424999237061
    ));
#26 = LINE('',#27,#28);
#27 = CARTESIAN_POINT('',(-2.324999809265,9.536743167264E-07,
    1.424999237061));
#28 = VECTOR('',#29,1.);
#29 = DIRECTION('',(0.,-1.,2.22044604925E-16));
#30 = ORIENTED_EDGE('',*,*,#31,.T.);
#31 = EDGE_CURVE('',#24,#32,#34,.T.);
#32 = VERTEX_POINT('',#33);
#33 = CARTESIAN_POINT('',(-3.375,-2.999999046326,1.424999237061));
#34 = LINE('',#35,#36);
#35 = CARTESIAN_POINT('',(-2.324999809265,-2.999999046326,1.424999237061
    ));
#36 = VECTOR('',#37,1.);
#37 = DIRECTION('',(-1.,0.,0.));
#38 = ORIENTED_EDGE('',*,*,#39,.F.);
#39 = EDGE_CURVE('',#40,#32,#42,.T.);
#40 = VERTEX_POINT('',#41);
#41 = CARTESIAN_POINT('',(-3.375,9.536743167264E-07,1.424999237061));
#42 = LINE('',#43,#44);
#43 = CARTESIAN_POINT('',(-3.375,9.536743167264E-07,1.424999237061));
#44 = VECTOR('',#45,1.);
#45 = DIRECTION('',(0.,-1.,2.22044604925E-16));
#46 = ORIENTED_EDGE('',*,*,#47,.F.);
#47 = EDGE_CURVE('',#22,#40,#48,.T.);
#48 = LINE('',#49,#50);
#49 = CARTESIAN_POINT('',(-2.324999809265,9.536743167264E-07,
    1.424999237061));
#50 = VECTOR('',#51,1.);
#51 = DIRECTION('',(-1.,0.,0.));
#52 = PLANE('',#53);
#53 = AXIS2_PLACEMENT_3D('',#54,#55,#56);
#54 = CARTESIAN_POINT('',(-2.324999809265,9.536743167264E-07,
    1.424999237061));
#55 = DIRECTION('',(-0.,-2.22044604925E-16,-1.));
#56 = DIRECTION('',(-1.,0.,0.));
#57 = ADVANCED_FACE('',(#58),#83,.F.);
#58 = FACE_BOUND('',#59,.F.);
#59 = EDGE_LOOP('',(#60,#70,#76,#77));
#60 = ORIENTED_EDGE('',*,*,#61,.T.);
#61 = EDGE_CURVE('',#62,#64,#66,.T.);
#62 = VERTEX_POINT('',#63);
#63 = CARTESIAN_POINT('',(-2.324999809265,9.536743160936E-07,
    -1.424999237061));
#64 = VERTEX_POINT('',#65);
#65 = CARTESIAN_POINT('',(-2.324999809265,-2.999999046326,
    -1.424999237061));
#66 = LINE('',#67,#68);
#67 = CARTESIAN_POINT('',(-2.324999809265,9.536743160936E-07,
    -1.424999237061));
#68 = VECTOR('',#69,1.);
#69 = DIRECTION('',(0.,-1.,2.22044604925E-16));
#70 = ORIENTED_EDGE('',*,*,#71,.T.);
#71 = EDGE_CURVE('',#64,#24,#72,.T.);
#72 = LINE('',#73,#74);
#73 = CARTESIAN_POINT('',(-2.324999809265,-2.999999046326,
    -1.424999237061));
#74 = VECTOR('',#75,1.);
#75 = DIRECTION('',(0.,2.22044604925E-16,1.));
#76 = ORIENTED_EDGE('',*,*,#21,.F.);
#77 = ORIENTED_EDGE('',*,*,#78,.F.);
#78 = EDGE_CURVE('',#62,#22,#79,.T.);
#79 = LINE('',#80,#81);
#80 = CARTESIAN_POINT('',(-2.324999809265,9.536743160936E-07,
    -1.424999237061));
#81 = VECTOR('',#82,1.);
#82 = DIRECTION('',(0.,2.22044604925E-16,1.));
#83 = PLANE('',#84);
#84 = AXIS2_PLACEMENT_3D('',#85,#86,#87);
#85 = CARTESIAN_POINT('',(-2.324999809265,9.536743160936E-07,
    -1.424999237061));
#86 = DIRECTION('',(-1.,0.,0.));
#87 = DIRECTION('',(0.,2.22044604925E-16,1.));
#88 = ADVANCED_FACE('',(#89),#114,.T.);
#89 = FACE_BOUND('',#90,.T.);
#90 = EDGE_LOOP('',(#91,#99,#100,#108));
#91 = ORIENTED_EDGE('',*,*,#92,.F.);
#92 = EDGE_CURVE('',#24,#93,#95,.T.);
#93 = VERTEX_POINT('',#94);
#94 = CARTESIAN_POINT('',(-2.624999809265,-3.999999046326,1.124999237061
    ));
#95 = LINE('',#96,#97);
#96 = CARTESIAN_POINT('',(-2.572245513787,-3.824151394731,1.177753532539
    ));
#97 = VECTOR('',#98,1.);
#98 = DIRECTION('',(-0.276172385369,-0.920574617898,-0.276172385369));
#99 = ORIENTED_EDGE('',*,*,#31,.T.);
#100 = ORIENTED_EDGE('',*,*,#101,.T.);
#101 = EDGE_CURVE('',#32,#102,#104,.T.);
#102 = VERTEX_POINT('',#103);
#103 = CARTESIAN_POINT('',(-3.075,-3.999999046326,1.124999237061));
#104 = LINE('',#105,#106);
#105 = CARTESIAN_POINT('',(-3.196398297811,-3.595338053622,
    1.246397534872));
#106 = VECTOR('',#107,1.);
#107 = DIRECTION('',(0.276172385369,-0.920574617898,-0.276172385369));
#108 = ORIENTED_EDGE('',*,*,#109,.F.);
#109 = EDGE_CURVE('',#93,#102,#110,.T.);
#110 = LINE('',#111,#112);
#111 = CARTESIAN_POINT('',(-2.324999809265,-3.999999046326,
    1.124999237061));
#112 = VECTOR('',#113,1.);
#113 = DIRECTION('',(-1.,0.,0.));
#114 = PLANE('',#115);
#115 = AXIS2_PLACEMENT_3D('',#116,#117,#118);
#116 = CARTESIAN_POINT('',(-2.324999809265,-3.499999046326,
    1.274999237061));
#117 = DIRECTION('',(1.469508009946E-18,-0.287347885566,0.957826285221)
  );
#118 = DIRECTION('',(-1.,-4.222600194809E-19,1.40753339827E-18));
#119 = ADVANCED_FACE('',(#120,#154,#172),#206,.F.);
#120 = FACE_BOUND('',#121,.F.);
#121 = EDGE_LOOP('',(#122,#132,#140,#148));
#122 = ORIENTED_EDGE('',*,*,#123,.F.);
#123 = EDGE_CURVE('',#124,#126,#128,.T.);
#124 = VERTEX_POINT('',#125);
#125 = CARTESIAN_POINT('',(-8.,9.536743179643E-07,7.));
#126 = VERTEX_POINT('',#127);
#127 = CARTESIAN_POINT('',(-8.,9.536743148557E-07,-7.));
#128 = LINE('',#129,#130);
#129 = CARTESIAN_POINT('',(-8.,9.536743179643E-07,7.));
#130 = VECTOR('',#131,1.);
#131 = DIRECTION('',(0.,-2.22044604925E-16,-1.));
#132 = ORIENTED_EDGE('',*,*,#133,.F.);
#133 = EDGE_CURVE('',#134,#124,#136,.T.);
#134 = VERTEX_POINT('',#135);
#135 = CARTESIAN_POINT('',(8.,9.536743179643E-07,7.));
#136 = LINE('',#137,#138);
#137 = CARTESIAN_POINT('',(8.,9.536743179643E-07,7.));
#138 = VECTOR('',#139,1.);
#139 = DIRECTION('',(-1.,0.,0.));
#140 = ORIENTED_EDGE('',*,*,#141,.F.);
#141 = EDGE_CURVE('',#142,#134,#144,.T.);
#142 = VERTEX_POINT('',#143);
#143 = CARTESIAN_POINT('',(8.,9.536743148557E-07,-7.));
#144 = LINE('',#145,#146);
#145 = CARTESIAN_POINT('',(8.,9.536743148557E-07,-7.));
#146 = VECTOR('',#147,1.);
#147 = DIRECTION('',(0.,2.22044604925E-16,1.));
#148 = ORIENTED_EDGE('',*,*,#149,.F.);
#149 = EDGE_CURVE('',#126,#142,#150,.T.);
#150 = LINE('',#151,#152);
#151 = CARTESIAN_POINT('',(-8.,9.536743148557E-07,-7.));
#152 = VECTOR('',#153,1.);
#153 = DIRECTION('',(1.,0.,0.));
#154 = FACE_BOUND('',#155,.F.);
#155 = EDGE_LOOP('',(#156,#157,#165,#171));
#156 = ORIENTED_EDGE('',*,*,#47,.T.);
#157 = ORIENTED_EDGE('',*,*,#158,.T.);
#158 = EDGE_CURVE('',#40,#159,#161,.T.);
#159 = VERTEX_POINT('',#160);
#160 = CARTESIAN_POINT('',(-3.375,9.536743160936E-07,-1.424999237061));
#161 = LINE('',#162,#163);
#162 = CARTESIAN_POINT('',(-3.375,9.536743167264E-07,1.424999237061));
#163 = VECTOR('',#164,1.);
#164 = DIRECTION('',(0.,-2.22044604925E-16,-1.));
#165 = ORIENTED_EDGE('',*,*,#166,.T.);
#166 = EDGE_CURVE('',#159,#62,#167,.T.);
#167 = LINE('',#168,#169);
#168 = CARTESIAN_POINT('',(-3.375,9.536743160936E-07,-1.424999237061));
#169 = VECTOR('',#170,1.);
#170 = DIRECTION('',(1.,0.,0.));
#171 = ORIENTED_EDGE('',*,*,#78,.T.);
#172 = FACE_BOUND('',#173,.F.);
#173 = EDGE_LOOP('',(#174,#184,#192,#200));
#174 = ORIENTED_EDGE('',*,*,#175,.T.);
#175 = EDGE_CURVE('',#176,#178,#180,.T.);
#176 = VERTEX_POINT('',#177);
#177 = CARTESIAN_POINT('',(3.375,9.536743167264E-07,1.424999237061));
#178 = VERTEX_POINT('',#179);
#179 = CARTESIAN_POINT('',(2.324999809265,9.536743167264E-07,
    1.424999237061));
#180 = LINE('',#181,#182);
#181 = CARTESIAN_POINT('',(3.375,9.536743167264E-07,1.424999237061));
#182 = VECTOR('',#183,1.);
#183 = DIRECTION('',(-1.,0.,0.));
#184 = ORIENTED_EDGE('',*,*,#185,.T.);
#185 = EDGE_CURVE('',#178,#186,#188,.T.);
#186 = VERTEX_POINT('',#187);
#187 = CARTESIAN_POINT('',(2.324999809265,9.536743160936E-07,
    -1.424999237061));
#188 = LINE('',#189,#190);
#189 = CARTESIAN_POINT('',(2.324999809265,9.536743167264E-07,
    1.424999237061));
#190 = VECTOR('',#191,1.);
#191 = DIRECTION('',(0.,-2.22044604925E-16,-1.));
#192 = ORIENTED_EDGE('',*,*,#193,.T.);
#193 = EDGE_CURVE('',#186,#194,#196,.T.);
#194 = VERTEX_POINT('',#195);
#195 = CARTESIAN_POINT('',(3.375,9.536743160936E-07,-1.424999237061));
#196 = LINE('',#197,#198);
#197 = CARTESIAN_POINT('',(2.324999809265,9.536743160936E-07,
    -1.424999237061));
#198 = VECTOR('',#199,1.);
#199 = DIRECTION('',(1.,0.,0.));
#200 = ORIENTED_EDGE('',*,*,#201,.T.);
#201 = EDGE_CURVE('',#194,#176,#202,.T.);
#202 = LINE('',#203,#204);
#203 = CARTESIAN_POINT('',(3.375,9.536743160936E-07,-1.424999237061));
#204 = VECTOR('',#205,1.);
#205 = DIRECTION('',(0.,2.22044604925E-16,1.));
#206 = PLANE('',#207);
#207 = AXIS2_PLACEMENT_3D('',#208,#209,#210);
#208 = CARTESIAN_POINT('',(0.,9.5367431641E-07,0.));
#209 = DIRECTION('',(0.,1.,0.));
#210 = DIRECTION('',(0.,0.,1.));
#211 = ADVANCED_FACE('',(#212),#230,.F.);
#212 = FACE_BOUND('',#213,.F.);
#213 = EDGE_LOOP('',(#214,#215,#223,#229));
#214 = ORIENTED_EDGE('',*,*,#39,.T.);
#215 = ORIENTED_EDGE('',*,*,#216,.T.);
#216 = EDGE_CURVE('',#32,#217,#219,.T.);
#217 = VERTEX_POINT('',#218);
#218 = CARTESIAN_POINT('',(-3.375,-2.999999046326,-1.424999237061));
#219 = LINE('',#220,#221);
#220 = CARTESIAN_POINT('',(-3.375,-2.999999046326,1.424999237061));
#221 = VECTOR('',#222,1.);
#222 = DIRECTION('',(0.,-2.22044604925E-16,-1.));
#223 = ORIENTED_EDGE('',*,*,#224,.F.);
#224 = EDGE_CURVE('',#159,#217,#225,.T.);
#225 = LINE('',#226,#227);
#226 = CARTESIAN_POINT('',(-3.375,9.536743160936E-07,-1.424999237061));
#227 = VECTOR('',#228,1.);
#228 = DIRECTION('',(0.,-1.,2.22044604925E-16));
#229 = ORIENTED_EDGE('',*,*,#158,.F.);
#230 = PLANE('',#231);
#231 = AXIS2_PLACEMENT_3D('',#232,#233,#234);
#232 = CARTESIAN_POINT('',(-3.375,9.536743167264E-07,1.424999237061));
#233 = DIRECTION('',(1.,0.,0.));
#234 = DIRECTION('',(0.,-2.22044604925E-16,-1.));
#235 = ADVANCED_FACE('',(#236),#247,.F.);
#236 = FACE_BOUND('',#237,.F.);
#237 = EDGE_LOOP('',(#238,#239,#245,#246));
#238 = ORIENTED_EDGE('',*,*,#224,.T.);
#239 = ORIENTED_EDGE('',*,*,#240,.T.);
#240 = EDGE_CURVE('',#217,#64,#241,.T.);
#241 = LINE('',#242,#243);
#242 = CARTESIAN_POINT('',(-3.375,-2.999999046326,-1.424999237061));
#243 = VECTOR('',#244,1.);
#244 = DIRECTION('',(1.,0.,0.));
#245 = ORIENTED_EDGE('',*,*,#61,.F.);
#246 = ORIENTED_EDGE('',*,*,#166,.F.);
#247 = PLANE('',#248);
#248 = AXIS2_PLACEMENT_3D('',#249,#250,#251);
#249 = CARTESIAN_POINT('',(-3.375,9.536743160936E-07,-1.424999237061));
#250 = DIRECTION('',(0.,2.22044604925E-16,1.));
#251 = DIRECTION('',(1.,0.,0.));
#252 = ADVANCED_FACE('',(#253),#271,.T.);
#253 = FACE_BOUND('',#254,.T.);
#254 = EDGE_LOOP('',(#255,#263,#264,#265));
#255 = ORIENTED_EDGE('',*,*,#256,.F.);
#256 = EDGE_CURVE('',#64,#257,#259,.T.);
#257 = VERTEX_POINT('',#258);
#258 = CARTESIAN_POINT('',(-2.624999809265,-3.999999046326,
    -1.124999237061));
#259 = LINE('',#260,#261);
#260 = CARTESIAN_POINT('',(-2.503601511454,-3.595338053622,
    -1.246397534872));
#261 = VECTOR('',#262,1.);
#262 = DIRECTION('',(-0.276172385369,-0.920574617898,0.276172385369));
#263 = ORIENTED_EDGE('',*,*,#71,.T.);
#264 = ORIENTED_EDGE('',*,*,#92,.T.);
#265 = ORIENTED_EDGE('',*,*,#266,.F.);
#266 = EDGE_CURVE('',#257,#93,#267,.T.);
#267 = LINE('',#268,#269);
#268 = CARTESIAN_POINT('',(-2.624999809265,-3.999999046326,
    -1.424999237061));
#269 = VECTOR('',#270,1.);
#270 = DIRECTION('',(0.,2.22044604925E-16,1.));
#271 = PLANE('',#272);
#272 = AXIS2_PLACEMENT_3D('',#273,#274,#275);
#273 = CARTESIAN_POINT('',(-2.474999809265,-3.499999046326,
    -1.424999237061));
#274 = DIRECTION('',(0.957826285221,-0.287347885566,6.3813959494E-19));
#275 = DIRECTION('',(6.050196713839E-17,2.038940147835E-16,1.));
#276 = ADVANCED_FACE('',(#277),#295,.F.);
#277 = FACE_BOUND('',#278,.F.);
#278 = EDGE_LOOP('',(#279,#280,#288,#294));
#279 = ORIENTED_EDGE('',*,*,#266,.F.);
#280 = ORIENTED_EDGE('',*,*,#281,.F.);
#281 = EDGE_CURVE('',#282,#257,#284,.T.);
#282 = VERTEX_POINT('',#283);
#283 = CARTESIAN_POINT('',(-3.075,-3.999999046326,-1.124999237061));
#284 = LINE('',#285,#286);
#285 = CARTESIAN_POINT('',(-3.375,-3.999999046326,-1.124999237061));
#286 = VECTOR('',#287,1.);
#287 = DIRECTION('',(1.,0.,0.));
#288 = ORIENTED_EDGE('',*,*,#289,.F.);
#289 = EDGE_CURVE('',#102,#282,#290,.T.);
#290 = LINE('',#291,#292);
#291 = CARTESIAN_POINT('',(-3.075,-3.999999046326,1.424999237061));
#292 = VECTOR('',#293,1.);
#293 = DIRECTION('',(0.,-2.22044604925E-16,-1.));
#294 = ORIENTED_EDGE('',*,*,#109,.F.);
#295 = PLANE('',#296);
#296 = AXIS2_PLACEMENT_3D('',#297,#298,#299);
#297 = CARTESIAN_POINT('',(-1.138690671491E-16,-3.999999046326,
    2.761321837735E-16));
#298 = DIRECTION('',(0.,1.,0.));
#299 = DIRECTION('',(0.,0.,1.));
#300 = ADVANCED_FACE('',(#301),#312,.T.);
#301 = FACE_BOUND('',#302,.T.);
#302 = EDGE_LOOP('',(#303,#304,#305,#311));
#303 = ORIENTED_EDGE('',*,*,#101,.F.);
#304 = ORIENTED_EDGE('',*,*,#216,.T.);
#305 = ORIENTED_EDGE('',*,*,#306,.T.);
#306 = EDGE_CURVE('',#217,#282,#307,.T.);
#307 = LINE('',#308,#309);
#308 = CARTESIAN_POINT('',(-3.127754295478,-3.824151394731,
    -1.177753532539));
#309 = VECTOR('',#310,1.);
#310 = DIRECTION('',(0.276172385369,-0.920574617898,0.276172385369));
#311 = ORIENTED_EDGE('',*,*,#289,.F.);
#312 = PLANE('',#313);
#313 = AXIS2_PLACEMENT_3D('',#314,#315,#316);
#314 = CARTESIAN_POINT('',(-3.225,-3.499999046326,1.424999237061));
#315 = DIRECTION('',(-0.957826285221,-0.287347885566,-6.3813959494E-19)
  );
#316 = DIRECTION('',(6.172442089374E-17,-2.035272786569E-16,-1.));
#317 = ADVANCED_FACE('',(#318),#343,.T.);
#318 = FACE_BOUND('',#319,.T.);
#319 = EDGE_LOOP('',(#320,#328,#336,#342));
#320 = ORIENTED_EDGE('',*,*,#321,.T.);
#321 = EDGE_CURVE('',#124,#322,#324,.T.);
#322 = VERTEX_POINT('',#323);
#323 = CARTESIAN_POINT('',(-8.,2.000000953674,7.));
#324 = LINE('',#325,#326);
#325 = CARTESIAN_POINT('',(-8.,9.536743179643E-07,7.));
#326 = VECTOR('',#327,1.);
#327 = DIRECTION('',(0.,1.,-2.22044604925E-16));
#328 = ORIENTED_EDGE('',*,*,#329,.T.);
#329 = EDGE_CURVE('',#322,#330,#332,.T.);
#330 = VERTEX_POINT('',#331);
#331 = CARTESIAN_POINT('',(-8.,2.000000953674,-7.));
#332 = LINE('',#333,#334);
#333 = CARTESIAN_POINT('',(-8.,2.000000953674,7.));
#334 = VECTOR('',#335,1.);
#335 = DIRECTION('',(0.,-2.22044604925E-16,-1.));
#336 = ORIENTED_EDGE('',*,*,#337,.F.);
#337 = EDGE_CURVE('',#126,#330,#338,.T.);
#338 = LINE('',#339,#340);
#339 = CARTESIAN_POINT('',(-8.,9.536743148557E-07,-7.));
#340 = VECTOR('',#341,1.);
#341 = DIRECTION('',(0.,1.,-2.22044604925E-16));
#342 = ORIENTED_EDGE('',*,*,#123,.F.);
#343 = PLANE('',#344);
#344 = AXIS2_PLACEMENT_3D('',#345,#346,#347);
#345 = CARTESIAN_POINT('',(-8.,9.536743179643E-07,7.));
#346 = DIRECTION('',(-1.,0.,0.));
#347 = DIRECTION('',(0.,-2.22044604925E-16,-1.));
#348 = ADVANCED_FACE('',(#349),#367,.T.);
#349 = FACE_BOUND('',#350,.T.);
#350 = EDGE_LOOP('',(#351,#359,#365,#366));
#351 = ORIENTED_EDGE('',*,*,#352,.T.);
#352 = EDGE_CURVE('',#134,#353,#355,.T.);
#353 = VERTEX_POINT('',#354);
#354 = CARTESIAN_POINT('',(8.,2.000000953674,7.));
#355 = LINE('',#356,#357);
#356 = CARTESIAN_POINT('',(8.,9.536743179643E-07,7.));
#357 = VECTOR('',#358,1.);
#358 = DIRECTION('',(0.,1.,-2.22044604925E-16));
#359 = ORIENTED_EDGE('',*,*,#360,.T.);
#360 = EDGE_CURVE('',#353,#322,#361,.T.);
#361 = LINE('',#362,#363);
#362 = CARTESIAN_POINT('',(8.,2.000000953674,7.));
#363 = VECTOR('',#364,1.);
#364 = DIRECTION('',(-1.,0.,0.));
#365 = ORIENTED_EDGE('',*,*,#321,.F.);
#366 = ORIENTED_EDGE('',*,*,#133,.F.);
#367 = PLANE('',#368);
#368 = AXIS2_PLACEMENT_3D('',#369,#370,#371);
#369 = CARTESIAN_POINT('',(8.,9.536743179643E-07,7.));
#370 = DIRECTION('',(0.,2.22044604925E-16,1.));
#371 = DIRECTION('',(-1.,0.,0.));
#372 = ADVANCED_FACE('',(#373),#391,.T.);
#373 = FACE_BOUND('',#374,.T.);
#374 = EDGE_LOOP('',(#375,#376,#384,#390));
#375 = ORIENTED_EDGE('',*,*,#337,.T.);
#376 = ORIENTED_EDGE('',*,*,#377,.T.);
#377 = EDGE_CURVE('',#330,#378,#380,.T.);
#378 = VERTEX_POINT('',#379);
#379 = CARTESIAN_POINT('',(8.,2.000000953674,-7.));
#380 = LINE('',#381,#382);
#381 = CARTESIAN_POINT('',(-8.,2.000000953674,-7.));
#382 = VECTOR('',#383,1.);
#383 = DIRECTION('',(1.,0.,0.));
#384 = ORIENTED_EDGE('',*,*,#385,.F.);
#385 = EDGE_CURVE('',#142,#378,#386,.T.);
#386 = LINE('',#387,#388);
#387 = CARTESIAN_POINT('',(8.,9.536743148557E-07,-7.));
#388 = VECTOR('',#389,1.);
#389 = DIRECTION('',(0.,1.,-2.22044604925E-16));
#390 = ORIENTED_EDGE('',*,*,#149,.F.);
#391 = PLANE('',#392);
#392 = AXIS2_PLACEMENT_3D('',#393,#394,#395);
#393 = CARTESIAN_POINT('',(-8.,9.536743148557E-07,-7.));
#394 = DIRECTION('',(0.,-2.22044604925E-16,-1.));
#395 = DIRECTION('',(1.,0.,0.));
#396 = ADVANCED_FACE('',(#397),#408,.T.);
#397 = FACE_BOUND('',#398,.T.);
#398 = EDGE_LOOP('',(#399,#400,#406,#407));
#399 = ORIENTED_EDGE('',*,*,#385,.T.);
#400 = ORIENTED_EDGE('',*,*,#401,.T.);
#401 = EDGE_CURVE('',#378,#353,#402,.T.);
#402 = LINE('',#403,#404);
#403 = CARTESIAN_POINT('',(8.,2.000000953674,-7.));
#404 = VECTOR('',#405,1.);
#405 = DIRECTION('',(0.,2.22044604925E-16,1.));
#406 = ORIENTED_EDGE('',*,*,#352,.F.);
#407 = ORIENTED_EDGE('',*,*,#141,.F.);
#408 = PLANE('',#409);
#409 = AXIS2_PLACEMENT_3D('',#410,#411,#412);
#410 = CARTESIAN_POINT('',(8.,9.536743148557E-07,-7.));
#411 = DIRECTION('',(1.,0.,0.));
#412 = DIRECTION('',(0.,2.22044604925E-16,1.));
#413 = ADVANCED_FACE('',(#414),#439,.F.);
#414 = FACE_BOUND('',#415,.F.);
#415 = EDGE_LOOP('',(#416,#424,#432,#438));
#416 = ORIENTED_EDGE('',*,*,#417,.T.);
#417 = EDGE_CURVE('',#176,#418,#420,.T.);
#418 = VERTEX_POINT('',#419);
#419 = CARTESIAN_POINT('',(3.375,-2.999999046326,1.424999237061));
#420 = LINE('',#421,#422);
#421 = CARTESIAN_POINT('',(3.375,9.536743167264E-07,1.424999237061));
#422 = VECTOR('',#423,1.);
#423 = DIRECTION('',(0.,-1.,2.22044604925E-16));
#424 = ORIENTED_EDGE('',*,*,#425,.T.);
#425 = EDGE_CURVE('',#418,#426,#428,.T.);
#426 = VERTEX_POINT('',#427);
#427 = CARTESIAN_POINT('',(2.324999809265,-2.999999046326,1.424999237061
    ));
#428 = LINE('',#429,#430);
#429 = CARTESIAN_POINT('',(3.375,-2.999999046326,1.424999237061));
#430 = VECTOR('',#431,1.);
#431 = DIRECTION('',(-1.,0.,0.));
#432 = ORIENTED_EDGE('',*,*,#433,.F.);
#433 = EDGE_CURVE('',#178,#426,#434,.T.);
#434 = LINE('',#435,#436);
#435 = CARTESIAN_POINT('',(2.324999809265,9.536743167264E-07,
    1.424999237061));
#436 = VECTOR('',#437,1.);
#437 = DIRECTION('',(0.,-1.,2.22044604925E-16));
#438 = ORIENTED_EDGE('',*,*,#175,.F.);
#439 = PLANE('',#440);
#440 = AXIS2_PLACEMENT_3D('',#441,#442,#443);
#441 = CARTESIAN_POINT('',(3.375,9.536743167264E-07,1.424999237061));
#442 = DIRECTION('',(-0.,-2.22044604925E-16,-1.));
#443 = DIRECTION('',(-1.,0.,0.));
#444 = ADVANCED_FACE('',(#445),#463,.F.);
#445 = FACE_BOUND('',#446,.F.);
#446 = EDGE_LOOP('',(#447,#455,#461,#462));
#447 = ORIENTED_EDGE('',*,*,#448,.T.);
#448 = EDGE_CURVE('',#194,#449,#451,.T.);
#449 = VERTEX_POINT('',#450);
#450 = CARTESIAN_POINT('',(3.375,-2.999999046326,-1.424999237061));
#451 = LINE('',#452,#453);
#452 = CARTESIAN_POINT('',(3.375,9.536743160936E-07,-1.424999237061));
#453 = VECTOR('',#454,1.);
#454 = DIRECTION('',(0.,-1.,2.22044604925E-16));
#455 = ORIENTED_EDGE('',*,*,#456,.T.);
#456 = EDGE_CURVE('',#449,#418,#457,.T.);
#457 = LINE('',#458,#459);
#458 = CARTESIAN_POINT('',(3.375,-2.999999046326,-1.424999237061));
#459 = VECTOR('',#460,1.);
#460 = DIRECTION('',(0.,2.22044604925E-16,1.));
#461 = ORIENTED_EDGE('',*,*,#417,.F.);
#462 = ORIENTED_EDGE('',*,*,#201,.F.);
#463 = PLANE('',#464);
#464 = AXIS2_PLACEMENT_3D('',#465,#466,#467);
#465 = CARTESIAN_POINT('',(3.375,9.536743160936E-07,-1.424999237061));
#466 = DIRECTION('',(-1.,0.,0.));
#467 = DIRECTION('',(0.,2.22044604925E-16,1.));
#468 = ADVANCED_FACE('',(#469),#487,.F.);
#469 = FACE_BOUND('',#470,.F.);
#470 = EDGE_LOOP('',(#471,#479,#485,#486));
#471 = ORIENTED_EDGE('',*,*,#472,.T.);
#472 = EDGE_CURVE('',#186,#473,#475,.T.);
#473 = VERTEX_POINT('',#474);
#474 = CARTESIAN_POINT('',(2.324999809265,-2.999999046326,
    -1.424999237061));
#475 = LINE('',#476,#477);
#476 = CARTESIAN_POINT('',(2.324999809265,9.536743160936E-07,
    -1.424999237061));
#477 = VECTOR('',#478,1.);
#478 = DIRECTION('',(0.,-1.,2.22044604925E-16));
#479 = ORIENTED_EDGE('',*,*,#480,.T.);
#480 = EDGE_CURVE('',#473,#449,#481,.T.);
#481 = LINE('',#482,#483);
#482 = CARTESIAN_POINT('',(2.324999809265,-2.999999046326,
    -1.424999237061));
#483 = VECTOR('',#484,1.);
#484 = DIRECTION('',(1.,0.,0.));
#485 = ORIENTED_EDGE('',*,*,#448,.F.);
#486 = ORIENTED_EDGE('',*,*,#193,.F.);
#487 = PLANE('',#488);
#488 = AXIS2_PLACEMENT_3D('',#489,#490,#491);
#489 = CARTESIAN_POINT('',(2.324999809265,9.536743160936E-07,
    -1.424999237061));
#490 = DIRECTION('',(0.,2.22044604925E-16,1.));
#491 = DIRECTION('',(1.,0.,0.));
#492 = ADVANCED_FACE('',(#493),#504,.F.);
#493 = FACE_BOUND('',#494,.F.);
#494 = EDGE_LOOP('',(#495,#496,#502,#503));
#495 = ORIENTED_EDGE('',*,*,#433,.T.);
#496 = ORIENTED_EDGE('',*,*,#497,.T.);
#497 = EDGE_CURVE('',#426,#473,#498,.T.);
#498 = LINE('',#499,#500);
#499 = CARTESIAN_POINT('',(2.324999809265,-2.999999046326,1.424999237061
    ));
#500 = VECTOR('',#501,1.);
#501 = DIRECTION('',(0.,-2.22044604925E-16,-1.));
#502 = ORIENTED_EDGE('',*,*,#472,.F.);
#503 = ORIENTED_EDGE('',*,*,#185,.F.);
#504 = PLANE('',#505);
#505 = AXIS2_PLACEMENT_3D('',#506,#507,#508);
#506 = CARTESIAN_POINT('',(2.324999809265,9.536743167264E-07,
    1.424999237061));
#507 = DIRECTION('',(1.,0.,0.));
#508 = DIRECTION('',(0.,-2.22044604925E-16,-1.));
#509 = ADVANCED_FACE('',(#510),#516,.T.);
#510 = FACE_BOUND('',#511,.T.);
#511 = EDGE_LOOP('',(#512,#513,#514,#515));
#512 = ORIENTED_EDGE('',*,*,#306,.F.);
#513 = ORIENTED_EDGE('',*,*,#240,.T.);
#514 = ORIENTED_EDGE('',*,*,#256,.T.);
#515 = ORIENTED_EDGE('',*,*,#281,.F.);
#516 = PLANE('',#517);
#517 = AXIS2_PLACEMENT_3D('',#518,#519,#520);
#518 = CARTESIAN_POINT('',(-3.375,-3.499999046326,-1.274999237061));
#519 = DIRECTION('',(1.277134537806E-19,-0.287347885566,-0.957826285221)
  );
#520 = DIRECTION('',(1.,3.669819090222E-20,1.223273030074E-19));
#521 = ADVANCED_FACE('',(#522),#528,.T.);
#522 = FACE_BOUND('',#523,.F.);
#523 = EDGE_LOOP('',(#524,#525,#526,#527));
#524 = ORIENTED_EDGE('',*,*,#329,.T.);
#525 = ORIENTED_EDGE('',*,*,#377,.T.);
#526 = ORIENTED_EDGE('',*,*,#401,.T.);
#527 = ORIENTED_EDGE('',*,*,#360,.T.);
#528 = PLANE('',#529);
#529 = AXIS2_PLACEMENT_3D('',#530,#531,#532);
#530 = CARTESIAN_POINT('',(0.,2.000000953674,-4.440892098501E-16));
#531 = DIRECTION('',(0.,1.,0.));
#532 = DIRECTION('',(0.,0.,1.));
#533 = ADVANCED_FACE('',(#534),#559,.T.);
#534 = FACE_BOUND('',#535,.T.);
#535 = EDGE_LOOP('',(#536,#544,#545,#553));
#536 = ORIENTED_EDGE('',*,*,#537,.F.);
#537 = EDGE_CURVE('',#418,#538,#540,.T.);
#538 = VERTEX_POINT('',#539);
#539 = CARTESIAN_POINT('',(3.075,-3.999999046326,1.124999237061));
#540 = LINE('',#541,#542);
#541 = CARTESIAN_POINT('',(3.127754295478,-3.824151394731,1.177753532539
    ));
#542 = VECTOR('',#543,1.);
#543 = DIRECTION('',(-0.276172385369,-0.920574617898,-0.276172385369));
#544 = ORIENTED_EDGE('',*,*,#425,.T.);
#545 = ORIENTED_EDGE('',*,*,#546,.T.);
#546 = EDGE_CURVE('',#426,#547,#549,.T.);
#547 = VERTEX_POINT('',#548);
#548 = CARTESIAN_POINT('',(2.624999809265,-3.999999046326,1.124999237061
    ));
#549 = LINE('',#550,#551);
#550 = CARTESIAN_POINT('',(2.503601511454,-3.595338053622,1.246397534872
    ));
#551 = VECTOR('',#552,1.);
#552 = DIRECTION('',(0.276172385369,-0.920574617898,-0.276172385369));
#553 = ORIENTED_EDGE('',*,*,#554,.F.);
#554 = EDGE_CURVE('',#538,#547,#555,.T.);
#555 = LINE('',#556,#557);
#556 = CARTESIAN_POINT('',(3.375,-3.999999046326,1.124999237061));
#557 = VECTOR('',#558,1.);
#558 = DIRECTION('',(-1.,0.,0.));
#559 = PLANE('',#560);
#560 = AXIS2_PLACEMENT_3D('',#561,#562,#563);
#561 = CARTESIAN_POINT('',(3.375,-3.499999046326,1.274999237061));
#562 = DIRECTION('',(1.469508009946E-18,-0.287347885566,0.957826285221)
  );
#563 = DIRECTION('',(-1.,-4.222600194809E-19,1.40753339827E-18));
#564 = ADVANCED_FACE('',(#565),#583,.T.);
#565 = FACE_BOUND('',#566,.T.);
#566 = EDGE_LOOP('',(#567,#575,#576,#577));
#567 = ORIENTED_EDGE('',*,*,#568,.F.);
#568 = EDGE_CURVE('',#449,#569,#571,.T.);
#569 = VERTEX_POINT('',#570);
#570 = CARTESIAN_POINT('',(3.075,-3.999999046326,-1.124999237061));
#571 = LINE('',#572,#573);
#572 = CARTESIAN_POINT('',(3.196398297811,-3.595338053622,
    -1.246397534872));
#573 = VECTOR('',#574,1.);
#574 = DIRECTION('',(-0.276172385369,-0.920574617898,0.276172385369));
#575 = ORIENTED_EDGE('',*,*,#456,.T.);
#576 = ORIENTED_EDGE('',*,*,#537,.T.);
#577 = ORIENTED_EDGE('',*,*,#578,.F.);
#578 = EDGE_CURVE('',#569,#538,#579,.T.);
#579 = LINE('',#580,#581);
#580 = CARTESIAN_POINT('',(3.075,-3.999999046326,-1.424999237061));
#581 = VECTOR('',#582,1.);
#582 = DIRECTION('',(0.,2.22044604925E-16,1.));
#583 = PLANE('',#584);
#584 = AXIS2_PLACEMENT_3D('',#585,#586,#587);
#585 = CARTESIAN_POINT('',(3.225,-3.499999046326,-1.424999237061));
#586 = DIRECTION('',(0.957826285221,-0.287347885566,6.3813959494E-19));
#587 = DIRECTION('',(6.050196713839E-17,2.038940147835E-16,1.));
#588 = ADVANCED_FACE('',(#589),#607,.T.);
#589 = FACE_BOUND('',#590,.T.);
#590 = EDGE_LOOP('',(#591,#599,#600,#601));
#591 = ORIENTED_EDGE('',*,*,#592,.F.);
#592 = EDGE_CURVE('',#473,#593,#595,.T.);
#593 = VERTEX_POINT('',#594);
#594 = CARTESIAN_POINT('',(2.624999809265,-3.999999046326,
    -1.124999237061));
#595 = LINE('',#596,#597);
#596 = CARTESIAN_POINT('',(2.572245513787,-3.824151394731,
    -1.177753532539));
#597 = VECTOR('',#598,1.);
#598 = DIRECTION('',(0.276172385369,-0.920574617898,0.276172385369));
#599 = ORIENTED_EDGE('',*,*,#480,.T.);
#600 = ORIENTED_EDGE('',*,*,#568,.T.);
#601 = ORIENTED_EDGE('',*,*,#602,.F.);
#602 = EDGE_CURVE('',#593,#569,#603,.T.);
#603 = LINE('',#604,#605);
#604 = CARTESIAN_POINT('',(2.324999809265,-3.999999046326,
    -1.124999237061));
#605 = VECTOR('',#606,1.);
#606 = DIRECTION('',(1.,0.,0.));
#607 = PLANE('',#608);
#608 = AXIS2_PLACEMENT_3D('',#609,#610,#611);
#609 = CARTESIAN_POINT('',(2.324999809265,-3.499999046326,
    -1.274999237061));
#610 = DIRECTION('',(1.277134537806E-19,-0.287347885566,-0.957826285221)
  );
#611 = DIRECTION('',(1.,3.669819090222E-20,1.223273030074E-19));
#612 = ADVANCED_FACE('',(#613),#624,.T.);
#613 = FACE_BOUND('',#614,.T.);
#614 = EDGE_LOOP('',(#615,#616,#617,#618));
#615 = ORIENTED_EDGE('',*,*,#546,.F.);
#616 = ORIENTED_EDGE('',*,*,#497,.T.);
#617 = ORIENTED_EDGE('',*,*,#592,.T.);
#618 = ORIENTED_EDGE('',*,*,#619,.F.);
#619 = EDGE_CURVE('',#547,#593,#620,.T.);
#620 = LINE('',#621,#622);
#621 = CARTESIAN_POINT('',(2.624999809265,-3.999999046326,1.424999237061
    ));
#622 = VECTOR('',#623,1.);
#623 = DIRECTION('',(0.,-2.22044604925E-16,-1.));
#624 = PLANE('',#625);
#625 = AXIS2_PLACEMENT_3D('',#626,#627,#628);
#626 = CARTESIAN_POINT('',(2.474999809265,-3.499999046326,1.424999237061
    ));
#627 = DIRECTION('',(-0.957826285221,-0.287347885566,-6.3813959494E-19)
  );
#628 = DIRECTION('',(6.172442089374E-17,-2.035272786569E-16,-1.));
#629 = ADVANCED_FACE('',(#630),#636,.F.);
#630 = FACE_BOUND('',#631,.F.);
#631 = EDGE_LOOP('',(#632,#633,#634,#635));
#632 = ORIENTED_EDGE('',*,*,#578,.F.);
#633 = ORIENTED_EDGE('',*,*,#602,.F.);
#634 = ORIENTED_EDGE('',*,*,#619,.F.);
#635 = ORIENTED_EDGE('',*,*,#554,.F.);
#636 = PLANE('',#637);
#637 = AXIS2_PLACEMENT_3D('',#638,#639,#640);
#638 = CARTESIAN_POINT('',(-1.138690671491E-16,-3.999999046326,
    2.761321837735E-16));
#639 = DIRECTION('',(0.,1.,0.));
#640 = DIRECTION('',(0.,0.,1.));
#641 = ( GEOMETRIC_REPRESENTATION_CONTEXT(3) 
GLOBAL_UNCERTAINTY_ASSIGNED_CONTEXT((#645)) GLOBAL_UNIT_ASSIGNED_CONTEXT
((#642,#643,#644)) REPRESENTATION_CONTEXT('Context #1',
  '3D Context with UNIT and UNCERTAINTY') );
#642 = ( LENGTH_UNIT() NAMED_UNIT(*) SI_UNIT(.MILLI.,.METRE.) );
#643 = ( NAMED_UNIT(*) PLANE_ANGLE_UNIT() SI_UNIT($,.RADIAN.) );
#644 = ( NAMED_UNIT(*) SI_UNIT($,.STERADIAN.) SOLID_ANGLE_UNIT() );
#645 = UNCERTAINTY_MEASURE_WITH_UNIT(LENGTH_MEASURE(1.E-07),#642,
  'distance_accuracy_value','confusion accuracy');
#646 = PRODUCT_RELATED_PRODUCT_CATEGORY('part',$,(#7));
#647 = MECHANICAL_DESIGN_GEOMETRIC_PRESENTATION_REPRESENTATION('',(#648)
  ,#641);
#648 = STYLED_ITEM('color',(#649),#15);
#649 = PRESENTATION_STYLE_ASSIGNMENT((#650,#656));
#650 = SURFACE_STYLE_USAGE(.BOTH.,#651);
#651 = SURFACE_SIDE_STYLE('',(#652));
#652 = SURFACE_STYLE_FILL_AREA(#653);
#653 = FILL_AREA_STYLE('',(#654));
#654 = FILL_AREA_STYLE_COLOUR('',#655);
#655 = COLOUR_RGB('',0.678431390124,0.709803936702,0.741176476869);
#656 = CURVE_STYLE('',#657,POSITIVE_LENGTH_MEASURE(0.1),#658);
#657 = DRAUGHTING_PRE_DEFINED_CURVE_FONT('continuous');
#658 = COLOUR_RGB('',9.803921802644E-02,9.803921802644E-02,
  9.803921802644E-02);
ENDSEC;
END-ISO-10303-21;
